<svg width="13" height="15" viewBox="0 0 13 15" fill="none" xmlns="http://www.w3.org/2000/svg">
<path d="M6.83554 14.4405C1.84582 14.4405 0.512649 9.2391 1.11527 5.83109C1.1415 5.68276 1.33593 5.64003 1.42065 5.76459C1.683 6.15019 1.91646 6.70716 2.30328 6.65881C2.88467 6.58612 3.28746 1.45594 6.7332 0.0124396C6.84255 -0.0333656 6.95696 0.053543 6.94495 0.171471C6.77457 1.8432 7.77829 4.23651 9.55653 4.23651C10.5759 4.23651 11.2734 3.42296 11.6219 2.60592C11.7277 2.35773 12.0904 2.38902 12.1511 2.65193C12.773 5.3453 14.4354 14.4405 6.83554 14.4405Z" fill="#FF8F1F"/>
<path d="M5.08643 9.42494C5.20377 9.32635 5.38191 9.39401 5.40855 9.54494C5.47089 9.8981 5.67587 10.505 6.34825 10.505C7.15707 10.505 7.70597 8.27943 7.84992 7.62488C7.8736 7.51718 7.97855 7.44405 8.0866 7.46602C10.1079 7.877 11.0907 14.4405 6.64641 14.4405C3.41101 14.4405 4.14398 10.2167 5.08643 9.42494ZM10.6097 2.31691C10.6809 1.75974 9.66382 3.28367 9.66382 3.28367C9.66382 3.28367 10.4393 3.64994 10.6097 2.31691ZM0.361225 10.6264C0.382664 10.3892 0.0775229 9.75412 0.023497 10.0056C-0.105816 10.6072 0.339786 10.8636 0.361225 10.6264Z" fill="#FFB636"/>
<path d="M8.49609 9.95038C8.4203 9.63427 8.14849 10.3685 8.18264 10.6676C8.2168 10.9666 8.67739 10.7067 8.49609 9.95038Z" fill="#FFD469"/>
</svg>
