<svg width="177" height="31" viewBox="0 0 177 31" fill="none" xmlns="http://www.w3.org/2000/svg">
<path d="M29.582 1.00006L25.382 1.00006C22.862 1.00006 18.902 0.880055 16.382 0.880055C7.47203 0.880054 0.78203 6.07005 0.782029 13.0001C0.782029 19.9001 7.35203 25.0601 16.082 25.0601C18.602 25.0601 22.862 25.0001 25.382 25.0001L29.582 25.0001L29.582 1.00006ZM25.382 5.05006L25.382 20.9501C23.942 21.0101 19.952 21.0701 16.082 21.0701C9.75203 21.0701 5.01203 17.6201 5.01203 13.0001C5.01203 8.35005 9.87203 4.87006 16.382 4.87006C18.962 4.87006 22.802 4.96006 25.382 5.05006Z" fill="url(#paint0_linear_1818_9456)"/>
<path d="M34 25.0001H38.2C40.72 25.0001 44.68 25.1201 47.2 25.1201C56.11 25.1201 62.8 19.9301 62.8 13.0001C62.8 6.10006 56.23 0.940063 47.5 0.940063C44.98 0.940063 40.72 1.00006 38.2 1.00006H34V25.0001ZM38.2 20.9501V5.05006C39.64 4.99006 43.63 4.93006 47.5 4.93006C53.83 4.93006 58.57 8.38006 58.57 13.0001C58.57 17.6501 53.71 21.1301 47.2 21.1301C44.62 21.1301 40.78 21.0401 38.2 20.9501Z" fill="url(#paint1_linear_1818_9456)"/>
<path d="M75.5641 25.6001C79.9441 25.6001 84.6841 23.6501 86.6641 22.6601V25.0001H90.7441V14.2301C90.7441 10.0001 84.8941 6.85006 77.0941 6.85006C73.4041 6.85006 70.0741 7.60006 67.1941 8.59006V12.7301C69.7741 11.4401 73.1341 10.7801 77.0941 10.7801C82.5541 10.7801 86.6641 12.2501 86.6641 14.2301V15.5801C84.6841 14.5901 79.9441 12.9401 75.5641 12.9401C69.8341 12.9401 65.5141 15.5801 65.5141 19.1201C65.5141 22.6601 69.8341 25.6001 75.5641 25.6001ZM69.7441 19.1201C69.7441 17.8301 72.2341 16.8401 75.5641 16.8401C79.0141 16.8401 83.7841 17.8301 86.6641 19.1201C84.0841 20.4101 79.0141 21.7001 75.5641 21.7001C72.2341 21.7001 69.7441 20.4101 69.7441 19.1201Z" fill="url(#paint2_linear_1818_9456)"/>
<path d="M96.1387 25.0001H100.219V14.3201C103.099 11.8301 105.979 10.8701 110.119 10.8701C112.579 10.8701 114.559 11.4101 115.399 11.8601V7.63006C114.139 7.06006 111.259 6.94006 110.119 6.94006C106.279 6.94006 103.399 8.29006 100.219 10.7801V7.60006H96.1387V25.0001Z" fill="url(#paint3_linear_1818_9456)"/>
<path d="M118.697 25.0001H122.777V7.60006H118.697V25.0001ZM117.647 3.16006C117.647 4.42006 118.967 5.35006 120.737 5.35006C122.477 5.35006 123.797 4.42006 123.797 3.16006C123.797 1.93006 122.477 1.00006 120.737 1.00006C118.967 1.00006 117.647 1.93006 117.647 3.16006Z" fill="url(#paint4_linear_1818_9456)"/>
<path d="M149.026 24.1901V19.9901C146.956 21.3101 143.956 21.7901 141.496 21.7901C134.656 21.7901 131.326 18.0101 131.326 13.0001V11.3801H143.686V7.60006H131.326V3.10006H127.246V13.0001C127.246 20.2901 132.226 25.7501 141.496 25.7501C143.836 25.7501 146.926 25.3601 149.026 24.1901Z" fill="url(#paint5_linear_1818_9456)"/>
<path d="M157.55 30.7901H161.93L176.75 7.60006H172.34L163.4 21.7301L154.04 7.60006H149.63L161.15 25.0001L157.55 30.7901Z" fill="url(#paint6_linear_1818_9456)"/>
<defs>
<linearGradient id="paint0_linear_1818_9456" x1="20.5062" y1="22.7942" x2="12.8332" y2="3.67177" gradientUnits="userSpaceOnUse">
<stop stop-color="#354DD4"/>
<stop offset="1" stop-color="#79F3FC"/>
</linearGradient>
<linearGradient id="paint1_linear_1818_9456" x1="141.116" y1="26.5035" x2="136.262" y2="-2.95914" gradientUnits="userSpaceOnUse">
<stop stop-color="#C3CAF2"/>
<stop offset="1" stop-color="white"/>
</linearGradient>
<linearGradient id="paint2_linear_1818_9456" x1="141.116" y1="26.5035" x2="136.262" y2="-2.95914" gradientUnits="userSpaceOnUse">
<stop stop-color="#C3CAF2"/>
<stop offset="1" stop-color="white"/>
</linearGradient>
<linearGradient id="paint3_linear_1818_9456" x1="141.116" y1="26.5035" x2="136.262" y2="-2.95914" gradientUnits="userSpaceOnUse">
<stop stop-color="#C3CAF2"/>
<stop offset="1" stop-color="white"/>
</linearGradient>
<linearGradient id="paint4_linear_1818_9456" x1="141.116" y1="26.5035" x2="136.262" y2="-2.95914" gradientUnits="userSpaceOnUse">
<stop stop-color="#C3CAF2"/>
<stop offset="1" stop-color="white"/>
</linearGradient>
<linearGradient id="paint5_linear_1818_9456" x1="141.116" y1="26.5035" x2="136.262" y2="-2.95914" gradientUnits="userSpaceOnUse">
<stop stop-color="#C3CAF2"/>
<stop offset="1" stop-color="white"/>
</linearGradient>
<linearGradient id="paint6_linear_1818_9456" x1="141.116" y1="26.5035" x2="136.262" y2="-2.95914" gradientUnits="userSpaceOnUse">
<stop stop-color="#C3CAF2"/>
<stop offset="1" stop-color="white"/>
</linearGradient>
</defs>
</svg>
