<svg width="133" height="40" viewBox="0 0 133 40" fill="none" xmlns="http://www.w3.org/2000/svg">
<path d="M19.929 1.01702e-07C17.3118 -0.000264683 14.7202 0.516505 12.3022 1.52081C9.88418 2.52511 7.68712 3.99726 5.83649 5.85319C3.98586 7.70912 2.51791 9.91247 1.51647 12.3374C0.515036 14.7624 -0.000263928 17.3614 1.01411e-07 19.9861H11.7898C4.46867 19.9861 0.641254 28.8864 5.80744 34.0976C8.1221 36.4257 10.9737 38.1452 14.1094 39.1038C17.2452 40.0622 20.5683 40.2302 23.7842 39.5927C27.0003 38.9553 30.0099 37.532 32.5461 35.4493C35.0825 33.3663 37.0673 30.6882 38.3246 27.6522C39.5822 24.6159 40.0732 21.3157 39.7546 18.0436C39.436 14.7716 38.3175 11.629 36.4981 8.89412C34.6787 6.15931 32.2148 3.91683 29.3247 2.3654C26.4344 0.813957 23.2072 0.00149326 19.929 1.01702e-07Z" fill="url(#paint0_linear_1737_9329)"/>
<path d="M8.33457 18.9357H8.24609L8.33457 18.962V18.9357Z" fill="url(#paint1_linear_1737_9329)"/>
<path d="M11.7968 19.9861C4.47572 19.9861 0.648313 28.8865 5.8145 34.0976L6.03561 34.2993C8.69584 35.9712 11.7445 36.9193 14.8812 37.05C18.0179 37.1808 21.1345 36.49 23.9239 35.0454C26.7134 33.6006 29.0795 31.4523 30.7891 28.8116C32.4989 26.1709 33.493 23.1293 33.6736 19.9861H11.7968Z" fill="url(#paint2_linear_1737_9329)"/>
<path d="M19.9311 35.4927C22.9893 35.4927 25.9788 34.5833 28.5216 32.8793C31.0643 31.1755 33.0463 28.7536 34.2165 25.9202C35.3868 23.0867 35.693 19.9688 35.0964 16.9608C34.4998 13.9528 33.0272 11.1898 30.8647 9.02118C28.7023 6.85254 25.9472 5.37567 22.9477 4.77734C19.9483 4.179 16.8393 4.48609 14.0139 5.65975C11.1886 6.83341 8.77366 8.82094 7.07463 11.371C5.3756 13.921 4.46875 16.9191 4.46875 19.986H11.7919C10.4325 19.9762 9.09199 20.3057 7.89115 20.9448C6.69034 21.5839 5.66689 22.5125 4.913 23.6469C5.73163 27.023 7.65682 30.0258 10.38 32.1737C13.1032 34.3215 16.4666 35.4904 19.9311 35.4927Z" fill="url(#paint3_linear_1737_9329)"/>
<path d="M19.9358 27.9992C24.3489 27.9992 27.9262 24.4116 27.9262 19.9859C27.9262 15.5602 24.3489 11.9725 19.9358 11.9725C15.5228 11.9725 11.9453 15.5602 11.9453 19.9859C11.9453 24.4116 15.5228 27.9992 19.9358 27.9992Z" fill="url(#paint4_linear_1737_9329)"/>
<path d="M56.2011 26.16C57.0611 26.16 57.8811 26.03 58.6611 25.77C59.4411 25.49 60.1211 25.07 60.7011 24.51C61.2811 23.95 61.7411 23.25 62.0811 22.41C62.4211 21.55 62.5911 20.54 62.5911 19.38C62.5911 18.22 62.4211 17.22 62.0811 16.38C61.7411 15.52 61.2811 14.81 60.7011 14.25C60.1411 13.69 59.4711 13.27 58.6911 12.99C57.9111 12.71 57.0911 12.57 56.2311 12.57H52.9011V26.16H56.2011ZM48.7611 30V8.73H56.3811C57.9011 8.73 59.3011 8.97 60.5811 9.45C61.8611 9.93 62.9611 10.63 63.8811 11.55C64.8211 12.45 65.5511 13.56 66.0711 14.88C66.6111 16.2 66.8811 17.7 66.8811 19.38C66.8811 21.06 66.6111 22.56 66.0711 23.88C65.5511 25.2 64.8211 26.31 63.8811 27.21C62.9411 28.11 61.8311 28.8 60.5511 29.28C59.2711 29.76 57.8711 30 56.3511 30H48.7611ZM69.27 25.98C69.27 25.32 69.38 24.74 69.6 24.24C69.84 23.72 70.16 23.27 70.56 22.89C70.96 22.51 71.42 22.21 71.94 21.99C72.48 21.77 73.06 21.61 73.68 21.51L77.31 20.97C77.73 20.91 78.02 20.79 78.18 20.61C78.34 20.41 78.42 20.18 78.42 19.92C78.42 19.4 78.21 18.95 77.79 18.57C77.39 18.19 76.77 18 75.93 18C75.05 18 74.37 18.24 73.89 18.72C73.43 19.2 73.17 19.76 73.11 20.4L69.57 19.65C69.63 19.07 69.81 18.49 70.11 17.91C70.41 17.33 70.82 16.81 71.34 16.35C71.86 15.89 72.5 15.52 73.26 15.24C74.02 14.94 74.9 14.79 75.9 14.79C77.06 14.79 78.05 14.95 78.87 15.27C79.69 15.57 80.35 15.98 80.85 16.5C81.37 17 81.74 17.59 81.96 18.27C82.2 18.95 82.32 19.66 82.32 20.4V27.66C82.32 28.06 82.34 28.49 82.38 28.95C82.42 29.39 82.46 29.74 82.5 30H78.84C78.8 29.8 78.76 29.53 78.72 29.19C78.7 28.83 78.69 28.51 78.69 28.23C78.31 28.81 77.76 29.32 77.04 29.76C76.34 30.2 75.44 30.42 74.34 30.42C73.56 30.42 72.85 30.29 72.21 30.03C71.59 29.79 71.06 29.47 70.62 29.07C70.18 28.65 69.84 28.18 69.6 27.66C69.38 27.12 69.27 26.56 69.27 25.98ZM75.18 27.45C75.6 27.45 76 27.4 76.38 27.3C76.78 27.18 77.13 26.99 77.43 26.73C77.73 26.45 77.97 26.1 78.15 25.68C78.33 25.24 78.42 24.69 78.42 24.03V23.37L75.09 23.88C74.57 23.96 74.13 24.15 73.77 24.45C73.43 24.73 73.26 25.16 73.26 25.74C73.26 26.18 73.42 26.58 73.74 26.94C74.06 27.28 74.54 27.45 75.18 27.45ZM95.3419 19.2C94.9419 19.12 94.5419 19.08 94.1419 19.08C93.6219 19.08 93.1319 19.15 92.6719 19.29C92.2119 19.43 91.8119 19.66 91.4719 19.98C91.1319 20.3 90.8519 20.73 90.6319 21.27C90.4319 21.79 90.3319 22.45 90.3319 23.25V30H86.3419V15.24H90.2119V17.43C90.4319 16.95 90.7119 16.56 91.0519 16.26C91.4119 15.94 91.7819 15.7 92.1619 15.54C92.5619 15.38 92.9519 15.27 93.3319 15.21C93.7319 15.15 94.0919 15.12 94.4119 15.12C94.5719 15.12 94.7219 15.13 94.8619 15.15C95.0219 15.15 95.1819 15.16 95.3419 15.18V19.2ZM98.1486 30V15.24H102.139V30H98.1486ZM97.6686 10.41C97.6686 9.71 97.9086 9.12 98.3886 8.64C98.8686 8.16 99.4486 7.92 100.129 7.92C100.829 7.92 101.409 8.16 101.869 8.64C102.349 9.12 102.589 9.71 102.589 10.41C102.589 11.07 102.349 11.64 101.869 12.12C101.409 12.6 100.829 12.84 100.129 12.84C99.4486 12.84 98.8686 12.6 98.3886 12.12C97.9086 11.64 97.6686 11.07 97.6686 10.41ZM111.33 15.24H114.3V18.78H111.33V24.96C111.33 25.6 111.47 26.05 111.75 26.31C112.05 26.55 112.49 26.67 113.07 26.67C113.31 26.67 113.55 26.66 113.79 26.64C114.03 26.62 114.2 26.59 114.3 26.55V29.85C114.12 29.93 113.84 30.01 113.46 30.09C113.1 30.17 112.63 30.21 112.05 30.21C110.61 30.21 109.47 29.81 108.63 29.01C107.79 28.21 107.37 27.09 107.37 25.65V18.78H104.7V15.24H105.45C106.23 15.24 106.8 15.02 107.16 14.58C107.54 14.12 107.73 13.56 107.73 12.9V10.83H111.33V15.24ZM118.882 35.82L122.362 28.14L116.092 15.24H120.562L124.492 23.88L128.122 15.24H132.382L123.112 35.82H118.882Z" fill="white"/>
<defs>
<linearGradient id="paint0_linear_1737_9329" x1="12.5577" y1="3.74562" x2="26.8642" y2="33.5882" gradientUnits="userSpaceOnUse">
<stop stop-color="#354DD4"/>
<stop offset="1" stop-color="#79F3FC"/>
</linearGradient>
<linearGradient id="paint1_linear_1737_9329" x1="8.24609" y1="18.9478" x2="8.34262" y2="18.9478" gradientUnits="userSpaceOnUse">
<stop stop-color="#354DD4"/>
<stop offset="1" stop-color="#79F3FC" stop-opacity="0"/>
</linearGradient>
<linearGradient id="paint2_linear_1737_9329" x1="6.94237" y1="31.1464" x2="30.2609" y2="32.3491" gradientUnits="userSpaceOnUse">
<stop stop-color="#354DD4"/>
<stop offset="1" stop-color="#79F3FC" stop-opacity="0"/>
</linearGradient>
<linearGradient id="paint3_linear_1737_9329" x1="21.0167" y1="4.73748" x2="22.3151" y2="34.3193" gradientUnits="userSpaceOnUse">
<stop offset="0.244056" stop-color="#354DD4"/>
<stop offset="1" stop-color="#79F3FC" stop-opacity="0"/>
</linearGradient>
<linearGradient id="paint4_linear_1737_9329" x1="23.9682" y1="25.9973" x2="17.7222" y2="16.7386" gradientUnits="userSpaceOnUse">
<stop stop-color="#C3CAF2"/>
<stop offset="1" stop-color="white"/>
</linearGradient>
</defs>
</svg>
