<svg width="15" height="17" viewBox="0 0 15 17" fill="none" xmlns="http://www.w3.org/2000/svg">
<path d="M7.00862 0.285706L6.85547 0.652012V11.2814L7.00862 11.3889L14.0201 8.47245L7.00862 0.285706Z" fill="url(#paint0_radial_1748_9778)"/>
<path d="M7.01152 0.285706L0 8.47245L7.01152 11.389V6.22981V0.285706Z" fill="url(#paint1_radial_1748_9778)"/>
<path d="M7.01152 0.285706L0 8.47245L7.01152 11.389V6.22981V0.285706Z" fill="white" fill-opacity="0.28"/>
<path d="M7.00817 12.3232L6.92188 12.3973V16.1837L7.00817 16.361L14.0239 9.4082L7.00817 12.3232Z" fill="url(#paint2_radial_1748_9778)"/>
<path d="M7.01152 16.361V12.3231L0 9.40808L7.01152 16.361Z" fill="url(#paint3_radial_1748_9778)"/>
<path d="M7.01152 16.361V12.3231L0 9.40808L7.01152 16.361Z" fill="white" fill-opacity="0.44"/>
<path d="M7.01172 11.389L14.0231 8.4725L7.01172 6.22986V11.389Z" fill="url(#paint4_radial_1748_9778)"/>
<path d="M0 8.47244L7.01141 11.3889V6.2298L0 8.47244Z" fill="url(#paint5_radial_1748_9778)"/>
<path d="M0 8.47244L7.01141 11.3889V6.2298L0 8.47244Z" fill="white" fill-opacity="0.42"/>
<defs>
<radialGradient id="paint0_radial_1748_9778" cx="0" cy="0" r="1" gradientUnits="userSpaceOnUse" gradientTransform="translate(10.6617 0.285706) rotate(91.1552) scale(11.1056 7.17027)">
<stop stop-color="#31E7FA"/>
<stop offset="0.526042" stop-color="#4477FF"/>
<stop offset="1" stop-color="#74CDFF"/>
</radialGradient>
<radialGradient id="paint1_radial_1748_9778" cx="0" cy="0" r="1" gradientUnits="userSpaceOnUse" gradientTransform="translate(3.7249 0.285706) rotate(91.1305) scale(11.1055 7.01706)">
<stop stop-color="#31E7FA"/>
<stop offset="0.526042" stop-color="#4477FF"/>
<stop offset="1" stop-color="#DB74FF"/>
</radialGradient>
<radialGradient id="paint2_radial_1748_9778" cx="0" cy="0" r="1" gradientUnits="userSpaceOnUse" gradientTransform="translate(10.6949 9.4082) rotate(91.8283) scale(6.95643 7.10541)">
<stop stop-color="#31E7FA"/>
<stop offset="0.526042" stop-color="#4477FF"/>
<stop offset="1" stop-color="#74CDFF"/>
</radialGradient>
<radialGradient id="paint3_radial_1748_9778" cx="0" cy="0" r="1" gradientUnits="userSpaceOnUse" gradientTransform="translate(3.7249 9.40808) rotate(91.805) scale(6.95638 7.01494)">
<stop stop-color="#31E7FA"/>
<stop offset="0.526042" stop-color="#4477FF"/>
<stop offset="1" stop-color="#DB74FF"/>
</radialGradient>
<radialGradient id="paint4_radial_1748_9778" cx="0" cy="0" r="1" gradientUnits="userSpaceOnUse" gradientTransform="translate(10.7366 6.22986) rotate(92.4319) scale(5.16379 7.012)">
<stop stop-color="#31E7FA"/>
<stop offset="0.526042" stop-color="#4477FF"/>
<stop offset="1" stop-color="#DB74FF"/>
</radialGradient>
<radialGradient id="paint5_radial_1748_9778" cx="0" cy="0" r="1" gradientUnits="userSpaceOnUse" gradientTransform="translate(3.72484 6.2298) rotate(92.4319) scale(5.16382 7.01199)">
<stop stop-color="#31E7FA"/>
<stop offset="0.526042" stop-color="#4477FF"/>
<stop offset="1" stop-color="#DB74FF"/>
</radialGradient>
</defs>
</svg>
