<svg width="61" height="25" viewBox="0 0 61 25" fill="none" xmlns="http://www.w3.org/2000/svg">
<rect width="61" height="25" rx="12.5" fill="#060B27"/>
<path d="M13 16.7059H14.622V12.8941C15.7343 13.4824 17.8198 14.1647 19.4881 14.1647C22.0371 14.1647 23.9488 12.6706 23.9488 10.6706C23.9488 8.67059 22.0371 7.17647 19.4881 7.17647C17.8198 7.17647 15.7343 7.85882 14.622 8.44706V7.29412H13V16.7059ZM14.622 11.3882V9.95294C15.5373 9.24706 17.6228 8.71765 19.4881 8.71765C21.0986 8.71765 22.3151 9.55294 22.3151 10.6706C22.3151 11.7882 21.0986 12.6235 19.4881 12.6235C17.6228 12.6235 15.5373 12.0941 14.622 11.3882Z" fill="#FFC368"/>
<path d="M25.4572 16.7059H27.0792V12.8941C28.1915 13.4824 30.277 14.1647 31.9453 14.1647H32.096L34.5869 16.7059H36.6724L33.8802 13.8471C35.398 13.3059 36.4059 12.1176 36.4059 10.6706C36.4059 8.67059 34.4943 7.17647 31.9453 7.17647C30.277 7.17647 28.1915 7.85882 27.0792 8.44706V7.29412H25.4572V16.7059ZM27.0792 11.3882V9.95294C27.9945 9.24706 30.08 8.71765 31.9453 8.71765C33.5558 8.71765 34.7723 9.55294 34.7723 10.6706C34.7723 11.7882 33.5558 12.6235 31.9453 12.6235C30.08 12.6235 27.9945 12.0941 27.0792 11.3882Z" fill="#FFC368"/>
<path d="M44.0912 17C47.4627 17 50 14.8588 50 12C50 9.14118 47.4627 7 44.0912 7C40.7196 7 38.1823 9.14118 38.1823 12C38.1823 14.8588 40.7196 17 44.0912 17ZM39.8159 12C39.8159 10.0353 41.6465 8.56471 44.0912 8.56471C46.5358 8.56471 48.3664 10.0353 48.3664 12C48.3664 13.9647 46.5358 15.4353 44.0912 15.4353C41.6465 15.4353 39.8159 13.9647 39.8159 12Z" fill="#FFC368"/>
</svg>
